<svg width="40" height="40" viewBox="0 0 40 40" fill="none" xmlns="http://www.w3.org/2000/svg">
<path d="M8.6875 32.625C7.99391 32.625 7.42122 32.3954 6.96941 31.9362C6.51758 31.477 6.29166 30.9109 6.29166 30.2379V9.74125C6.29166 9.06825 6.51758 8.50215 6.96941 8.04296C7.42122 7.58376 7.99391 7.35417 8.6875 7.35417H24.25V8.41667H8.6875C8.34028 8.41667 8.03125 8.55556 7.76041 8.83333C7.48958 9.11111 7.35416 9.41667 7.35416 9.75V30.2292C7.35416 30.5625 7.48958 30.8681 7.76041 31.1458C8.03125 31.4236 8.34028 31.5625 8.6875 31.5625H29.1667C29.5 31.5625 29.8056 31.4236 30.0833 31.1458C30.3611 30.8681 30.5 30.5625 30.5 30.2292V14.6458H31.5625V30.2395C31.5625 30.9114 31.3329 31.477 30.8737 31.9362C30.4145 32.3954 29.8486 32.625 29.1759 32.625H8.6875ZM13.4375 27.1667V26.1042H24.4167V27.1667H13.4375ZM13.4375 22.1875V21.125H24.4167V22.1875H13.4375ZM13.4375 17.2083V16.1458H24.4167V17.2083H13.4375ZM29.3542 12.875V9.5625H26.0417V8.5H29.3542V5.1875H30.4167V8.5H33.7292V9.5625H30.4167V12.875H29.3542Z" fill="currentColor"/>
</svg>
