<svg width="40" height="40" viewBox="0 0 40 40" fill="none" xmlns="http://www.w3.org/2000/svg">
<path d="M8.97917 30.9999V29.9374H11.375V16.4583C11.375 14.3333 12.064 12.4652 13.4421 10.8541C14.8202 9.24297 16.5478 8.24992 18.625 7.87492V7.08088C18.625 6.6901 18.7537 6.36364 19.011 6.1015C19.2684 5.83933 19.5948 5.70825 19.9902 5.70825C20.3856 5.70825 20.7153 5.83933 20.9792 6.1015C21.2431 6.36364 21.375 6.6901 21.375 7.08088V7.87492C23.4583 8.24992 25.191 9.24297 26.5729 10.8541C27.9549 12.4652 28.6458 14.3333 28.6458 16.4583V29.9374H31.0417V30.9999H8.97917ZM19.9926 35.0833C19.317 35.0833 18.7396 34.8419 18.2604 34.3593C17.7813 33.8767 17.5417 33.2985 17.5417 32.6249H22.4583C22.4583 33.3055 22.2163 33.8853 21.7322 34.3645C21.2481 34.8437 20.6683 35.0833 19.9926 35.0833ZM12.4375 29.9374H27.5833V16.4583C27.5833 14.3577 26.8432 12.5722 25.3629 11.1016C23.8826 9.63104 22.0927 8.89575 19.9932 8.89575C17.8936 8.89575 16.1094 9.63104 14.6407 11.1016C13.1719 12.5722 12.4375 14.3577 12.4375 16.4583V29.9374Z" fill="currentColor"/>
</svg>
