<svg width="40" height="40" viewBox="0 0 40 40" fill="none" xmlns="http://www.w3.org/2000/svg">
<path d="M32.3125 32.9791L21.9889 22.6458C21.163 23.368 20.2083 23.9201 19.125 24.302C18.0417 24.6839 16.9883 24.8749 15.9649 24.8749C13.4271 24.8749 11.2881 24.0025 9.54783 22.2577C7.80761 20.5128 6.9375 18.3809 6.9375 15.8618C6.9375 13.3428 7.80613 11.2083 9.54338 9.45825C11.2807 7.70825 13.4126 6.83325 15.9392 6.83325C18.4658 6.83325 20.6042 7.70674 22.3542 9.45371C24.1042 11.2007 24.9792 13.3352 24.9792 15.8574C24.9792 16.9802 24.7708 18.0833 24.3542 19.1666C23.9375 20.2499 23.4028 21.1626 22.75 21.9046L33.0833 32.2083L32.3125 32.9791ZM15.9583 23.8124C18.1944 23.8124 20.0799 23.0477 21.6146 21.5183C23.1493 19.9889 23.9167 18.1 23.9167 15.8516C23.9167 13.6033 23.1493 11.7152 21.6146 10.1874C20.0799 8.65964 18.191 7.89575 15.9479 7.89575C13.7049 7.89575 11.8194 8.66046 10.2917 10.1899C8.76389 11.7193 8 13.6082 8 15.8565C8 18.1049 8.76447 19.993 10.2934 21.5208C11.8223 23.0485 13.7106 23.8124 15.9583 23.8124Z" fill="currentColor"/>
</svg>
