<svg width="40" height="40" viewBox="0 0 40 40" fill="none" xmlns="http://www.w3.org/2000/svg">
<path d="M19.9166 34.2916C17.9722 34.2916 16.1347 33.9178 14.4041 33.1703C12.6736 32.4228 11.1654 31.4027 9.87956 30.1099C8.59373 28.8171 7.57706 27.302 6.82956 25.5645C6.08206 23.827 5.70831 21.972 5.70831 19.9995C5.70831 17.9998 6.09095 16.1317 6.85623 14.3953C7.62179 12.6592 8.6704 11.1453 10.0021 9.85367C11.334 8.56228 12.8958 7.54853 14.6875 6.81242C16.4791 6.07631 18.3861 5.70825 20.4083 5.70825C22.253 5.70825 24.0073 6.01728 25.6712 6.63534C27.3348 7.25339 28.8037 8.10922 30.0779 9.20284C31.3521 10.2962 32.3729 11.6017 33.1404 13.1195C33.9079 14.637 34.2916 16.293 34.2916 18.0874C34.2916 20.4385 33.6319 22.3485 32.3125 23.8174C30.993 25.2863 29.0894 26.0208 26.6016 26.0208H23.7291C22.868 26.0208 22.1389 26.3166 21.5416 26.9083C20.9444 27.5002 20.6458 28.2262 20.6458 29.0862C20.6458 29.8884 20.8541 30.5259 21.2708 30.9987C21.6875 31.4717 21.8958 32.0069 21.8958 32.6041C21.8958 33.1319 21.7361 33.5451 21.4166 33.8437C21.0972 34.1423 20.5972 34.2916 19.9166 34.2916ZM10.8916 20.5208C11.2611 20.5208 11.5798 20.3881 11.8479 20.1228C12.116 19.8578 12.25 19.5405 12.25 19.1708C12.25 18.8013 12.1173 18.4826 11.8521 18.2145C11.5871 17.9464 11.2697 17.8124 10.9 17.8124C10.5305 17.8124 10.2118 17.9451 9.94373 18.2103C9.67567 18.4753 9.54165 18.7927 9.54165 19.1624C9.54165 19.5319 9.67429 19.8506 9.93956 20.1187C10.2046 20.3867 10.5219 20.5208 10.8916 20.5208ZM15.8708 13.8958C16.2403 13.8958 16.559 13.7631 16.8271 13.4978C17.0951 13.2328 17.2291 12.9155 17.2291 12.5458C17.2291 12.1763 17.0965 11.8576 16.8312 11.5895C16.5662 11.3214 16.2489 11.1874 15.8791 11.1874C15.5097 11.1874 15.191 11.3201 14.9229 11.5853C14.6548 11.8503 14.5208 12.1677 14.5208 12.5374C14.5208 12.9069 14.6535 13.2256 14.9187 13.4937C15.1837 13.7617 15.5011 13.8958 15.8708 13.8958ZM24.1416 13.8958C24.5111 13.8958 24.8298 13.7631 25.0979 13.4978C25.366 13.2328 25.5 12.9155 25.5 12.5458C25.5 12.1763 25.3673 11.8576 25.1021 11.5895C24.8371 11.3214 24.5197 11.1874 24.15 11.1874C23.7805 11.1874 23.4618 11.3201 23.1937 11.5853C22.9257 11.8503 22.7916 12.1677 22.7916 12.5374C22.7916 12.9069 22.9243 13.2256 23.1896 13.4937C23.4546 13.7617 23.7719 13.8958 24.1416 13.8958ZM29.1 20.5208C29.4694 20.5208 29.7882 20.3881 30.0562 20.1228C30.3243 19.8578 30.4583 19.5405 30.4583 19.1708C30.4583 18.8013 30.3257 18.4826 30.0604 18.2145C29.7954 17.9464 29.478 17.8124 29.1083 17.8124C28.7389 17.8124 28.4201 17.9451 28.1521 18.2103C27.884 18.4753 27.75 18.7927 27.75 19.1624C27.75 19.5319 27.8826 19.8506 28.1479 20.1187C28.4129 20.3867 28.7303 20.5208 29.1 20.5208ZM19.915 33.2291C20.2186 33.2291 20.4476 33.1666 20.6021 33.0416C20.7562 32.9166 20.8333 32.7291 20.8333 32.4791C20.8333 32.0902 20.6285 31.6839 20.2187 31.2603C19.809 30.8367 19.6041 30.1319 19.6041 29.1458C19.6041 27.9374 20.0012 26.9374 20.7954 26.1458C21.5896 25.3541 22.57 24.9583 23.7366 24.9583H26.6041C28.7708 24.9583 30.4166 24.3228 31.5416 23.052C32.6666 21.7812 33.2291 20.1249 33.2291 18.0833C33.2291 14.7221 31.934 11.9964 29.3437 9.90617C26.7535 7.81589 23.7773 6.77075 20.4154 6.77075C16.5829 6.77075 13.3507 8.05228 10.7187 10.6153C8.08679 13.1787 6.77081 16.3069 6.77081 19.9999C6.77081 23.6666 8.05901 26.7881 10.6354 29.3645C13.2118 31.9409 16.305 33.2291 19.915 33.2291Z" fill="currentColor"/>
</svg>
