<svg width="42" height="42" viewBox="0 0 42 42" fill="none" xmlns="http://www.w3.org/2000/svg">
<path d="M11.1603 30.778C12.6597 29.7426 14.1969 28.9259 15.7719 28.328C17.3469 27.7301 19.0896 27.4312 21 27.4312C22.9104 27.4312 24.6531 27.7301 26.2281 28.328C27.8031 28.9259 29.349 29.7426 30.8656 30.778C32.076 29.5676 33.0495 28.1363 33.7859 26.484C34.5224 24.8318 34.8906 23.0052 34.8906 21.0043C34.8906 17.1514 33.538 13.8723 30.8328 11.1671C28.1276 8.46188 24.85 7.10928 21 7.10928C17.15 7.10928 13.8724 8.46188 11.1672 11.1671C8.46197 13.8723 7.10937 17.1514 7.10937 21.0043C7.10937 23.0052 7.4776 24.8318 8.21406 26.484C8.95051 28.1363 9.9326 29.5676 11.1603 30.778ZM21.0062 21.5687C19.602 21.5687 18.426 21.0968 17.4781 20.1529C16.5302 19.2091 16.0562 18.0352 16.0562 16.6311C16.0562 15.227 16.5281 14.0509 17.472 13.103C18.4158 12.1551 19.5897 11.6812 20.9938 11.6812C22.3979 11.6812 23.574 12.1531 24.5219 13.0969C25.4698 14.0407 25.9437 15.2147 25.9437 16.6187C25.9437 18.0228 25.4718 19.1989 24.528 20.1468C23.5842 21.0947 22.4102 21.5687 21.0062 21.5687ZM21 36.0062C18.9173 36.0062 16.9585 35.6159 15.1237 34.8353C13.2889 34.0547 11.6986 32.9901 10.3529 31.6415C9.00722 30.2929 7.94426 28.7023 7.16406 26.8695C6.38385 25.0368 5.99374 23.0766 5.99374 20.989C5.99374 18.899 6.38404 16.9402 7.16463 15.1127C7.94521 13.2851 9.0098 11.6985 10.3584 10.3528C11.707 9.00712 13.2976 7.94417 15.1304 7.16396C16.9631 6.38376 18.9233 5.99365 21.0109 5.99365C23.1009 5.99365 25.0597 6.38395 26.8872 7.16453C28.7148 7.94512 30.3014 9.0097 31.6471 10.3583C32.9928 11.7069 34.0557 13.2933 34.8359 15.1175C35.6161 16.9416 36.0062 18.9024 36.0062 20.9999C36.0062 23.0826 35.6159 25.0414 34.8354 26.8762C34.0548 28.711 32.9902 30.3013 31.6416 31.647C30.293 32.9927 28.7066 34.0556 26.8824 34.8358C25.0583 35.616 23.0975 36.0062 21 36.0062ZM20.9987 34.8905C22.6183 34.8905 24.2266 34.5952 25.8234 34.0046C27.4203 33.414 28.8021 32.6082 29.9687 31.5874C28.8021 30.6687 27.4645 29.9322 25.956 29.378C24.4475 28.8239 22.7968 28.5468 21.0039 28.5468C19.2111 28.5468 17.5445 28.8093 16.0042 29.3343C14.4639 29.8593 13.1396 30.6103 12.0312 31.5874C13.1979 32.6082 14.5792 33.414 16.1752 34.0046C17.7712 34.5952 19.3791 34.8905 20.9987 34.8905ZM21 20.453C22.0646 20.453 22.9687 20.0812 23.7125 19.3374C24.4562 18.5937 24.8281 17.6895 24.8281 16.6249C24.8281 15.5603 24.4562 14.6562 23.7125 13.9124C22.9687 13.1687 22.0646 12.7968 21 12.7968C19.9354 12.7968 19.0312 13.1687 18.2875 13.9124C17.5437 14.6562 17.1719 15.5603 17.1719 16.6249C17.1719 17.6895 17.5437 18.5937 18.2875 19.3374C19.0312 20.0812 19.9354 20.453 21 20.453Z" fill="currentColor"/>
</svg>
